<svg width="147" height="52" viewBox="0 0 147 52" fill="none" xmlns="http://www.w3.org/2000/svg">
<path d="M33.19 30V20.06H40.862V30H39.602V21.18H34.45V30H33.19ZM46.2348 30.14C45.5068 30.14 44.8628 29.9673 44.3028 29.622C43.7522 29.2673 43.3228 28.8053 43.0148 28.236C42.7068 27.6573 42.5528 27.032 42.5528 26.36C42.5528 25.6787 42.7068 25.0533 43.0148 24.484C43.3322 23.9053 43.7662 23.4433 44.3168 23.098C44.8768 22.7433 45.5162 22.566 46.2348 22.566C46.9628 22.566 47.6022 22.7433 48.1528 23.098C48.7128 23.4433 49.1468 23.9053 49.4548 24.484C49.7722 25.0533 49.9308 25.6787 49.9308 26.36C49.9308 27.032 49.7722 27.6573 49.4548 28.236C49.1468 28.8053 48.7175 29.2673 48.1668 29.622C47.6162 29.9673 46.9722 30.14 46.2348 30.14ZM43.8128 26.374C43.8128 26.878 43.9202 27.3353 44.1348 27.746C44.3588 28.1567 44.6528 28.4833 45.0168 28.726C45.3808 28.9593 45.7868 29.076 46.2348 29.076C46.6828 29.076 47.0888 28.9547 47.4528 28.712C47.8262 28.4693 48.1202 28.1427 48.3348 27.732C48.5588 27.312 48.6708 26.85 48.6708 26.346C48.6708 25.842 48.5588 25.3847 48.3348 24.974C48.1202 24.5633 47.8262 24.2367 47.4528 23.994C47.0888 23.7513 46.6828 23.63 46.2348 23.63C45.7868 23.63 45.3808 23.756 45.0168 24.008C44.6528 24.2507 44.3588 24.5773 44.1348 24.988C43.9202 25.3987 43.8128 25.8607 43.8128 26.374ZM50.6117 31.722V28.908H50.7657C51.0364 28.908 51.279 28.796 51.4937 28.572C51.7177 28.3387 51.8997 27.928 52.0397 27.34C52.1797 26.7427 52.2637 25.898 52.2917 24.806L52.3617 22.692H57.3317V28.908H58.3257V31.722H57.2337V30H51.7037V31.722H50.6117ZM52.4877 28.908H56.0997V23.784H53.4537L53.4117 24.918C53.3744 26.1127 53.2764 27.018 53.1177 27.634C52.9684 28.25 52.7584 28.6747 52.4877 28.908ZM59.6812 30V22.692H60.9132V25.702H61.7252L64.0212 22.692H65.4212L62.6912 26.234L65.7432 30H64.3152L61.7252 26.836H60.9132V30H59.6812ZM66.3109 30.056V28.95C66.6283 28.9407 66.9083 28.824 67.1509 28.6C67.3936 28.376 67.5849 27.9653 67.7249 27.368C67.8743 26.7707 67.9676 25.9167 68.0049 24.806L68.0889 22.692H73.0589V30H71.8269V23.784H69.1809L69.1529 24.918C69.1063 26.2433 68.9709 27.2793 68.7469 28.026C68.5323 28.7727 68.2196 29.2953 67.8089 29.594C67.4076 29.8927 66.9083 30.0467 66.3109 30.056ZM81.0827 30.14C80.4387 30.14 79.8694 30 79.3747 29.72C78.88 29.44 78.4834 29.0573 78.1847 28.572C77.886 28.0773 77.704 27.5173 77.6387 26.892H76.2807V30H75.0487V22.692H76.2807V25.814H77.6387C77.7134 25.17 77.9 24.6053 78.1987 24.12C78.5067 23.6253 78.908 23.2427 79.4027 22.972C79.8974 22.7013 80.4574 22.566 81.0827 22.566C81.82 22.566 82.4547 22.7387 82.9867 23.084C83.5187 23.42 83.9294 23.8727 84.2187 24.442C84.508 25.0113 84.6527 25.6507 84.6527 26.36C84.6527 27.088 84.5034 27.7367 84.2047 28.306C83.9154 28.8753 83.5 29.3233 82.9587 29.65C82.4267 29.9767 81.8014 30.14 81.0827 30.14ZM81.0827 29.076C81.54 29.076 81.9414 28.9593 82.2867 28.726C82.632 28.4927 82.9027 28.1753 83.0987 27.774C83.2947 27.3633 83.3927 26.892 83.3927 26.36C83.3927 25.8 83.29 25.3193 83.0847 24.918C82.8887 24.5073 82.6134 24.19 82.2587 23.966C81.9134 23.742 81.5214 23.63 81.0827 23.63C80.644 23.63 80.252 23.7467 79.9067 23.98C79.5707 24.204 79.3094 24.5213 79.1227 24.932C78.936 25.3427 78.8427 25.8187 78.8427 26.36C78.8427 27.1907 79.0527 27.8533 79.4727 28.348C79.8927 28.8333 80.4294 29.076 81.0827 29.076ZM90.2943 30V27.074C89.7249 27.3447 89.0809 27.48 88.3623 27.48C86.7383 27.48 85.9263 26.6493 85.9263 24.988V22.692H87.1583V24.82C87.1583 25.408 87.2796 25.8373 87.5223 26.108C87.7649 26.3787 88.1523 26.514 88.6843 26.514C88.9829 26.514 89.2769 26.4813 89.5663 26.416C89.8649 26.3507 90.1076 26.262 90.2943 26.15V22.692H91.5403V30H90.2943ZM93.5191 30V22.706H94.7511V28.348L98.8391 22.692H99.9591V30H98.7271V24.47L94.6951 30H93.5191ZM103.706 30V23.784H101.186V22.692H107.458V23.784H104.938V30H103.706ZM108.681 30V22.692H109.913V25.184H111.733C112.592 25.184 113.241 25.4033 113.679 25.842C114.127 26.2713 114.351 26.836 114.351 27.536C114.351 28.236 114.137 28.824 113.707 29.3C113.278 29.7667 112.648 30 111.817 30H108.681ZM109.913 29.034H111.649C112.163 29.034 112.531 28.8893 112.755 28.6C112.989 28.3013 113.105 27.956 113.105 27.564C113.105 27.1813 112.998 26.85 112.783 26.57C112.569 26.29 112.181 26.15 111.621 26.15H109.913V29.034Z" fill="#231F20"/>
<path d="M4 1H143V-1H4V1ZM146 4V48H148V4H146ZM143 51H4V53H143V51ZM1 48V4H-1V48H1ZM4 51C2.34315 51 1 49.6569 1 48H-1C-1 50.7614 1.23858 53 4 53V51ZM146 48C146 49.6569 144.657 51 143 51V53C145.761 53 148 50.7614 148 48H146ZM143 1C144.657 1 146 2.34315 146 4H148C148 1.23858 145.761 -1 143 -1V1ZM4 -1C1.23858 -1 -1 1.23858 -1 4H1C1 2.34315 2.34315 1 4 1V-1Z" fill="#231F20"/>
</svg>
