<svg width="100" height="71" viewBox="0 0 100 71" fill="none" xmlns="http://www.w3.org/2000/svg">
<path d="M19.758 11.2055C18.9036 11.3408 17.6221 11.7562 16.8454 12.1522C15.9716 12.6062 14.991 13.5626 14.6027 14.345C14.2823 15.0115 14.1658 16.1224 14.3697 16.6151C14.7192 17.4555 16.0201 17.9192 16.9328 17.5424C17.1755 17.4458 17.4279 17.1657 17.8454 16.5475C18.5832 15.4752 19.1172 14.9536 19.8551 14.6155C20.3794 14.374 20.5638 14.345 21.758 14.316C23.3211 14.2677 23.9716 14.403 24.4959 14.9053C24.8939 15.282 25.2337 16.1321 25.3114 16.9532L25.3697 17.5521L24.2629 17.8515C23.6512 18.0157 22.3502 18.3345 21.3599 18.547C20.3697 18.7596 18.9716 19.0687 18.2531 19.2232C15.2046 19.8898 13.6803 21.3194 13.4473 23.7344C13.2046 26.1397 14.8065 28.3132 17.3114 28.9797C18.0201 29.1729 18.2726 29.1922 19.6124 29.1536C20.9716 29.1053 21.2046 29.0763 22.0396 28.8058C22.991 28.487 24.3405 27.7819 25.2046 27.1443L25.6997 26.7676L26.1561 27.4341C26.6609 28.1683 27.4376 28.9314 27.8163 29.0763C28.2434 29.2405 29.0978 29.1922 29.4959 28.9894C30.0104 28.7285 30.4667 28.2359 30.6027 27.8012C30.7192 27.3955 30.6512 26.9994 30.1366 25.164L29.8745 24.1981L29.8551 20.2375C29.8357 16.6247 29.8163 16.1997 29.6318 15.3883C29.3599 14.1808 28.9425 13.3597 28.2629 12.7221C27.5735 12.0653 26.9328 11.7368 25.7386 11.4277C24.8939 11.2055 24.6027 11.1766 22.5735 11.1476C21.3502 11.1379 20.0784 11.1572 19.758 11.2055ZM25.2046 22.894C24.9328 24.1981 24.3502 24.9805 23.2434 25.5698C22.3988 26.0141 21.7289 26.1783 20.7871 26.1783C19.5444 26.1687 18.7192 25.7243 18.2337 24.7873C17.9619 24.2657 17.9813 23.406 18.2726 22.8843C18.6512 22.2178 19.3308 21.8507 20.9619 21.474C21.7386 21.2904 23.0396 20.9813 23.8357 20.7881L25.292 20.4307L25.3211 21.3098C25.3405 21.8411 25.292 22.4786 25.2046 22.894Z" fill="#262626"/>
<path d="M36.6699 11.2056C36.2136 11.3409 35.7184 11.7852 35.4951 12.2586C35.2913 12.7029 35.2913 12.7222 35.2621 22.9424C35.2427 29.8781 35.2718 33.404 35.3398 33.858C35.4854 34.7853 35.7379 35.2683 36.2233 35.5388C36.5631 35.732 36.7184 35.761 37.4757 35.7223C38.2621 35.6934 38.3592 35.674 38.7087 35.3939C38.9515 35.2007 39.165 34.9013 39.3204 34.5245C39.5631 33.9546 39.5631 33.9546 39.5922 30.2162L39.6214 26.4779L40.2913 27.1444C41.8349 28.6803 43.0291 29.173 45.1942 29.173C46.5437 29.173 47.2815 29.0184 48.2815 28.5547C51.2815 27.1637 52.9417 23.8794 52.7864 19.658C52.6796 16.7794 51.932 14.8764 50.2913 13.2342C49.3398 12.2779 48.3495 11.7079 47.1262 11.3988C46.1942 11.1573 44.4175 11.138 43.5048 11.3505C42.4951 11.592 41.4369 12.2006 40.4854 13.1086L39.6408 13.9104L39.5728 13.3018C39.4854 12.529 39.2427 12.0074 38.8058 11.621C38.2718 11.1573 37.4078 10.9835 36.6699 11.2056ZM45.6602 14.9054C46.7573 15.4463 47.6214 16.6248 48.0291 18.1607C48.2815 19.0977 48.2524 21.2422 47.9806 22.2468C47.5728 23.7248 46.7379 24.8453 45.6408 25.3766C45.1553 25.6181 44.9903 25.6471 44.0777 25.6471C43.1165 25.6471 43.0097 25.6278 42.4078 25.3283C41.2815 24.7777 40.4272 23.6572 40.0194 22.1985C39.7864 21.3485 39.7864 18.9528 40.0291 18.0641C40.2718 17.1561 40.6214 16.4992 41.1845 15.8907C42.0777 14.915 42.8835 14.5769 44.2233 14.6156C44.9612 14.6349 45.1845 14.6735 45.6602 14.9054Z" fill="#262626"/>
<path d="M59.1948 11.2057C58.7385 11.341 58.2434 11.7853 58.0201 12.2587C57.8162 12.703 57.8162 12.732 57.7482 26.3234C57.6997 33.8098 57.6803 42.8514 57.6997 46.4159C57.7191 52.3568 57.7385 52.9267 57.8939 53.3227C58.2531 54.2308 58.8259 54.5785 59.923 54.5785C60.7677 54.5785 61.3211 54.3563 61.6803 53.8927C62.1754 53.2455 62.1754 53.2648 62.2434 48.3479C62.2919 44.6385 62.3405 43.5759 62.4667 43.0446C62.7385 41.8758 63.457 40.9195 64.4861 40.3689C65.0104 40.0984 65.2143 40.0404 65.923 40.0114C67.6026 39.9342 68.3502 40.4172 68.855 41.9144C69.0589 42.5327 69.0686 42.7452 69.1269 47.72C69.1851 53.2165 69.1948 53.2261 69.6803 53.883C70.0783 54.4143 70.5832 54.5978 71.5152 54.5592C72.2143 54.5302 72.3599 54.4916 72.7288 54.2404C72.9812 54.0665 73.2434 53.7574 73.389 53.4676L73.6414 52.9943V47.1887C73.6414 40.7939 73.6414 40.7746 73.0395 39.5091C72.5832 38.5528 71.5541 37.5095 70.6706 37.0942C69.5929 36.6015 68.9618 36.4856 67.4376 36.5339C66.3405 36.5725 65.9424 36.6208 65.3987 36.8044C64.5346 37.1038 63.7579 37.5772 62.9133 38.3306L62.2337 38.9392V36.6885C62.2337 35.452 62.2046 32.6313 62.1657 30.4289L62.1075 26.4297L62.7968 27.1155C64.3599 28.6804 65.5444 29.1731 67.7191 29.1731C69.0686 29.1731 69.8065 29.0185 70.8065 28.5549C73.8065 27.1638 75.4667 23.8795 75.3113 19.6581C75.2045 16.7795 74.457 14.8765 72.8162 13.2343C71.8647 12.278 70.8744 11.708 69.6511 11.3989C68.7191 11.1574 66.9424 11.1381 66.0298 11.3506C65.0201 11.5921 63.9618 12.2007 63.0104 13.1087L62.1657 13.9105L62.0978 13.3019C62.0104 12.5291 61.7677 12.0075 61.3308 11.6211C60.7968 11.1574 59.9327 10.9836 59.1948 11.2057ZM68.1851 14.9055C69.2822 15.4464 70.1463 16.6249 70.5541 18.1608C70.8065 19.0978 70.7774 21.2423 70.5055 22.247C70.0977 23.7249 69.2628 24.8455 68.1657 25.3768C67.6803 25.6183 67.5152 25.6472 66.6026 25.6472C65.6414 25.6472 65.5346 25.6279 64.9327 25.3285C63.8065 24.7778 62.9521 23.6573 62.5444 22.1987C62.3113 21.3486 62.3113 18.9529 62.5541 18.0642C62.7968 17.1562 63.1463 16.4993 63.7094 15.8908C64.6026 14.9151 65.4084 14.577 66.7482 14.6157C67.4861 14.635 67.7094 14.6736 68.1851 14.9055Z" fill="#262626"/>
<path d="M86.1261 11.254C82.6407 12.0365 80.3494 14.2872 79.6115 17.6585C79.0776 20.0928 79.3494 22.6817 80.3397 24.6813C81.3494 26.7002 83.1067 28.1491 85.3882 28.8543C86.2232 29.1055 86.3494 29.1151 88.2523 29.1151C90.0096 29.1151 90.33 29.0861 91.0096 28.9026C93.9805 28.0815 96.0776 25.9467 96.9125 22.8942C97.1067 22.1697 97.1358 21.8606 97.1358 20.1411C97.1358 18.4313 97.1067 18.1125 96.9125 17.3881C96.0776 14.3355 93.9805 12.2007 91.0193 11.3893C90.0096 11.1188 87.1067 11.0319 86.1261 11.254ZM89.5727 14.6543C90.9514 15.1083 91.9319 16.2578 92.398 17.9676C92.6407 18.8564 92.6407 21.4259 92.398 22.3049C91.9805 23.8215 91.1552 24.9034 90.0096 25.4444C89.4077 25.7245 89.3009 25.7438 88.2523 25.7438C87.1844 25.7438 87.1067 25.7342 86.4853 25.4251C84.8543 24.633 83.9611 22.7493 83.9611 20.1411C83.9611 17.2528 85.0776 15.2339 87.0193 14.635C87.6116 14.4418 88.9902 14.4611 89.5727 14.6543Z" fill="#262626"/>
<path d="M4.32069 30.6605C3.90321 30.8441 3.54399 31.2111 3.28185 31.6941C3.06826 32.0998 3.05855 32.2158 3.02942 34.5534L2.99059 36.9974H2.34981C1.14593 36.9974 0.446899 37.5866 0.446899 38.5913C0.446899 39.6056 1.13622 40.1851 2.3401 40.1851H3.0003L3.03913 45.614C3.06826 50.2894 3.09738 51.1394 3.23331 51.6611C3.66049 53.2549 4.49544 54.076 6.08768 54.4431C7.07797 54.6749 9.90321 54.588 10.7867 54.3079C12.0003 53.9118 12.5537 53.3129 12.5537 52.3952C12.5537 51.8156 12.3498 51.4292 11.8838 51.1104C11.5828 50.8979 11.4954 50.8883 10.7576 50.9462C8.58282 51.1201 8.58282 51.1201 8.28185 50.9655C8.1168 50.8883 7.90321 50.6564 7.80612 50.4536C7.63136 50.1155 7.62166 49.7581 7.59253 45.1503L7.5634 40.2045L8.70903 40.1658C10.1751 40.1175 10.6896 39.9243 10.9712 39.2964C11.078 39.0646 11.1653 38.7458 11.1653 38.5913C11.1653 38.1566 10.8352 37.5383 10.476 37.2775C10.1751 37.065 10.0391 37.0457 8.86437 37.0167L7.57311 36.9781V35.0364C7.57311 32.0902 7.40806 31.443 6.48573 30.8441C6.14593 30.6219 5.96146 30.5736 5.34981 30.5446C4.87408 30.5349 4.50515 30.5736 4.32069 30.6605Z" fill="#262626"/>
<path d="M21.4662 36.6592C18.3205 37.3451 16.2429 39.1998 15.3108 42.1653C14.9322 43.3728 14.8254 44.3581 14.8837 46.0583C14.9516 47.9129 15.1555 48.8403 15.8254 50.183C16.971 52.4917 18.9128 53.9117 21.6506 54.4237C22.7283 54.6265 25.1943 54.6265 26.1846 54.4237C27.9516 54.0663 29.4176 53.3031 30.4662 52.2212C31.6992 50.9461 31.971 49.6034 31.1652 48.8306C30.9322 48.6085 30.7671 48.5408 30.2914 48.5119C29.9807 48.4925 29.6118 48.4925 29.4759 48.5312C29.34 48.5602 28.7769 49.0045 28.204 49.4972C26.2526 51.2359 25.3788 51.632 23.6603 51.5644C22.7963 51.5354 22.5924 51.4871 22.0293 51.2166C20.6215 50.5404 19.5244 48.734 19.5147 47.0725V46.6668L24.738 46.6378C29.8934 46.6089 29.9613 46.6089 30.4953 46.3867C31.5438 45.9713 31.8545 45.3917 31.8545 43.9234C31.8448 41.8272 31.0778 40.0788 29.5438 38.6298C28.4176 37.5769 27.272 36.9877 25.6992 36.6689C24.7671 36.4757 22.3497 36.4757 21.4662 36.6592ZM25.1749 40.0209C26.2817 40.5715 27.0293 41.634 27.3303 43.1023C27.4079 43.5081 27.4759 43.9138 27.4759 44.0007C27.4759 44.1263 27.0196 44.1456 23.4953 44.1456H19.5147V43.9234C19.5147 43.5274 19.8837 42.2523 20.1361 41.7403C20.5924 40.8516 21.34 40.1754 22.2332 39.8566C22.5536 39.7407 22.9322 39.7117 23.6409 39.7311C24.4759 39.7504 24.6895 39.789 25.1749 40.0209Z" fill="#262626"/>
<path d="M43.5443 36.5725C43.4375 36.6015 43.0491 36.6884 42.6705 36.7754C39.4763 37.5192 37.2045 39.9535 36.5637 43.3537C35.6899 47.9808 37.321 52.038 40.7287 53.7091C42.1462 54.395 42.8549 54.5302 45.1948 54.5302C47.6025 54.5205 48.2336 54.4046 49.8938 53.6029C50.7384 53.1875 51.0297 52.9943 51.7093 52.3181C52.3501 51.6902 52.5928 51.3714 52.8841 50.7629C53.2142 50.0673 53.253 49.9128 53.253 49.198C53.253 48.4831 53.2239 48.3769 52.9617 47.9905C52.554 47.4205 52.0297 47.1404 51.3695 47.1404C50.5248 47.1404 50.1559 47.4205 49.2821 48.7246C48.4666 49.9418 47.9229 50.4827 47.0977 50.8788C46.5928 51.1299 46.4666 51.1492 45.3792 51.1492C44.2239 51.1492 44.2045 51.1492 43.4763 50.7822C42.5928 50.3475 42.088 49.8258 41.6025 48.8405C41.1365 47.9132 40.952 46.9569 40.9617 45.5465C40.9714 43.0253 41.9229 41.1223 43.5734 40.3109C44.088 40.0597 44.2142 40.0404 45.2918 40.0404C46.2918 40.0404 46.5248 40.0694 46.9229 40.2529C47.6219 40.5814 48.1948 41.0933 48.9326 42.069C50.0588 43.5566 50.4763 43.8078 51.5054 43.5759C52.1559 43.431 52.7384 42.9384 52.9715 42.3588C53.5831 40.7649 51.7482 38.263 49.1948 37.2101C47.8841 36.6788 47.3501 36.5822 45.486 36.5532C44.5248 36.5435 43.6511 36.5532 43.5443 36.5725Z" fill="#262626"/>
<path d="M3.20398 67.0299V68.9715H3.59233H3.97097L4.0001 67.7061L4.02922 66.431L4.58262 67.6771C5.08747 68.8363 5.14573 68.9232 5.41757 68.9522C5.68942 68.9812 5.70883 68.9522 6.27194 67.6964L6.84475 66.4213L6.87388 67.6964L6.90301 68.9715H7.2331H7.57291V67.0299V65.0979L7.1166 65.1269L6.66029 65.1559L6.28165 66.0253C6.07776 66.4986 5.80592 67.1362 5.67 67.4259L5.42728 67.9572L4.81563 66.5566L4.20398 65.1559L3.69912 65.1269L3.20398 65.0979V67.0299Z" fill="#262626"/>
<path d="M9.68925 65.3202C9.38828 65.4941 9.02905 65.9771 9.02905 66.2089C9.02905 66.2379 9.18439 66.2669 9.36886 66.2669C9.63099 66.2669 9.77663 66.1992 9.94167 66.006C10.398 65.4844 11.3592 65.7452 11.3592 66.3828C11.3592 66.6532 11.3592 66.6532 10.7281 66.6532C9.60187 66.6532 9.02905 67.0686 9.02905 67.8994C9.02905 68.4113 9.20381 68.7108 9.61158 68.9233C9.98051 69.1165 10.7087 69.1068 11.097 68.9136C11.3009 68.7977 11.4077 68.7881 11.4368 68.8653C11.4562 68.9233 11.631 68.9716 11.8252 68.9716H12.1844L12.1553 67.5516C12.1164 65.9384 12.0193 65.6003 11.5339 65.3009C11.0873 65.0304 10.1747 65.0401 9.68925 65.3202ZM11.3397 67.6385C11.2912 68.3437 10.4659 68.7108 9.94167 68.2664C9.69896 68.0539 9.67954 67.996 9.75721 67.7545C9.87371 67.426 10.3009 67.2425 10.9514 67.2425L11.3689 67.2328L11.3397 67.6385Z" fill="#262626"/>
<path d="M13.5922 67.7642V70.4206H13.932H14.2718V69.5995C14.2718 69.1455 14.2912 68.7784 14.3106 68.7784C14.33 68.7784 14.4757 68.8461 14.6213 68.9233C14.7766 69.0006 15.1359 69.0682 15.4271 69.0682C15.8931 69.0682 15.9805 69.0393 16.3106 68.7012C17.1067 67.9091 17.1067 66.2669 16.3106 65.4748C15.9805 65.1367 15.8931 65.1077 15.4271 65.1077C15.1359 65.1077 14.7766 65.1753 14.6213 65.2526C14.2815 65.4265 14.2718 65.4265 14.2718 65.2526C14.2718 65.156 14.165 65.1077 13.932 65.1077H13.5922V67.7642ZM15.8252 66.0254C16.0485 66.2476 16.0679 66.3442 16.0679 67.088C16.0679 67.8511 16.0485 67.9187 15.8058 68.1699C15.4465 68.5273 14.8737 68.5369 14.5242 68.2085C14.2912 67.9863 14.2718 67.9091 14.2718 67.088C14.2718 66.2959 14.2912 66.1799 14.4951 66.0061C14.6116 65.8998 14.7766 65.7839 14.8543 65.7549C15.1164 65.6486 15.5727 65.7839 15.8252 66.0254Z" fill="#262626"/>
<path d="M18.1558 67.0397V68.9717H18.5441H18.9325V68.1506C18.9325 67.4068 18.9519 67.3295 19.1169 67.3295C19.2334 67.3295 19.5538 67.6386 19.9713 68.1506L20.6315 68.9717H21.1072C21.6509 68.9717 21.6995 69.0973 20.6606 67.8415C20.2917 67.4068 20.0004 67.0204 20.0004 66.9818C20.0004 66.9431 20.3305 66.5084 20.7286 66.0158L21.4664 65.1077H21.0004H20.5344L19.9033 65.9288C19.0684 67.0107 18.9325 67.0107 18.9325 65.9288V65.1077H18.5441H18.1558V67.0397Z" fill="#262626"/>
<path d="M23.2527 65.291C22.6313 65.6677 22.34 66.2473 22.3303 67.0974C22.3303 67.9474 22.6701 68.5946 23.3206 68.9327C23.9323 69.2515 25.2624 68.9907 25.5245 68.498C25.6701 68.2372 25.3109 67.9088 25.0682 68.0827C24.6119 68.4111 24.2429 68.5077 23.8643 68.3918C23.476 68.2855 23.107 67.8412 23.107 67.4934C23.107 67.3485 23.2332 67.3292 24.3692 67.3292H25.6313V66.8172C25.6216 66.17 25.3497 65.5518 24.9323 65.3006C24.5051 65.0495 23.6604 65.0398 23.2527 65.291ZM24.408 65.7933C24.6313 65.8995 24.9517 66.3922 24.9517 66.6433C24.9517 66.711 24.6313 66.7496 24.0294 66.7496C23.0099 66.7496 22.9808 66.7206 23.3012 66.1893C23.5827 65.7353 23.9711 65.6001 24.408 65.7933Z" fill="#262626"/>
<path d="M26.505 65.3974V65.6872H27.1361H27.7671V67.3294V68.9715H28.1555H28.5438V67.3294V65.6872H29.1749H29.806V65.3974V65.1076H28.1555H26.505V65.3974Z" fill="#262626"/>
<path d="M30.8735 67.0494V68.9813L31.2813 68.9524L31.6891 68.9234L32.4755 67.6773L33.2522 66.4311L33.2813 67.7062L33.3104 68.9717H33.6891H34.0774V67.0397V65.1077H33.6988H33.3104L32.4852 66.4311L31.6502 67.7545V66.4311V65.1077H31.2619H30.8735V67.0494Z" fill="#262626"/>
<path d="M35.6313 67.0396V68.9715H36.0197H36.408V68.1987V67.4259H37.2333H38.0585V68.1987V68.9715H38.4469H38.8352V67.0396V65.1076H38.4469H38.0585V65.977V66.8464H37.2333H36.408V65.977V65.1076H36.0197H35.6313V67.0396Z" fill="#262626"/>
<path d="M40.2911 67.0396V68.9715H40.6795H41.0678V67.3294V65.6872H41.9416H42.8154V65.3974V65.1076H41.5533H40.2911V67.0396Z" fill="#262626"/>
<path d="M44.6116 65.2429C43.9805 65.5231 43.5922 66.2186 43.5922 67.0879C43.5922 67.9284 43.9514 68.6045 44.5825 68.933C44.9125 69.1069 45.7378 69.1069 46.1456 68.933C47.4854 68.3824 47.4854 65.7935 46.1553 65.2429C45.7475 65.069 44.9902 65.0787 44.6116 65.2429ZM45.7766 65.8418C46.6698 66.2572 46.6116 68.0346 45.699 68.3824C44.9514 68.6625 44.3689 68.1022 44.3689 67.1073C44.3689 66.4601 44.5533 66.0447 44.932 65.8418C45.2718 65.6583 45.3883 65.6583 45.7766 65.8418Z" fill="#262626"/>
<path d="M48.4469 67.0396V68.9715H49.6702C50.9129 68.9715 51.1265 68.9232 51.5343 68.5562C51.845 68.2664 51.8352 67.5998 51.5052 67.2811C51.3789 67.1458 51.2333 67.0396 51.1751 67.0396C51.1265 67.0396 51.2139 66.914 51.3692 66.7594C51.8644 66.2571 51.6896 65.523 51.01 65.2428C50.7964 65.1559 50.3013 65.1076 49.5634 65.1076H48.4469V67.0396ZM50.7285 65.8804C50.8061 65.948 50.8741 66.1025 50.8741 66.2185C50.8741 66.5566 50.6411 66.6725 49.9032 66.7304L49.2236 66.7787V66.2185V65.6582L49.9032 65.7065C50.2721 65.7355 50.6508 65.8128 50.7285 65.8804ZM50.6605 67.4356C51.1848 67.6191 51.1848 68.1118 50.6605 68.2857C50.4954 68.3436 50.1071 68.3919 49.7964 68.3919H49.2236V67.8606V67.3294H49.7964C50.1071 67.3294 50.4954 67.3776 50.6605 67.4356Z" fill="#262626"/>
<path d="M54.0294 65.2429C53.3984 65.5231 53.01 66.2186 53.01 67.0879C53.01 67.9284 53.3692 68.6045 54.0003 68.933C54.3304 69.1069 55.1556 69.1069 55.5634 68.933C56.9032 68.3824 56.9032 65.7935 55.5731 65.2429C55.1654 65.069 54.4081 65.0787 54.0294 65.2429ZM55.1945 65.8418C56.0877 66.2572 56.0294 68.0346 55.1168 68.3824C54.3692 68.6625 53.7867 68.1022 53.7867 67.1073C53.7867 66.4601 53.9712 66.0447 54.3498 65.8418C54.6896 65.6583 54.8061 65.6583 55.1945 65.8418Z" fill="#262626"/>
<path d="M58.5921 65.291C57.9708 65.6677 57.6795 66.2473 57.6698 67.0974C57.6698 67.9474 58.0096 68.5946 58.6601 68.9327C59.2717 69.2515 60.6018 68.9907 60.864 68.498C61.0096 68.2372 60.6504 67.9088 60.4076 68.0827C59.9513 68.4111 59.5824 68.5077 59.2038 68.3918C58.8154 68.2855 58.4465 67.8412 58.4465 67.4934C58.4465 67.3485 58.5727 67.3292 59.7086 67.3292H60.9708V66.8172C60.961 66.17 60.6892 65.5518 60.2717 65.3006C59.8445 65.0495 58.9999 65.0398 58.5921 65.291ZM59.7475 65.7933C59.9708 65.8995 60.2911 66.3922 60.2911 66.6433C60.2911 66.711 59.9708 66.7496 59.3688 66.7496C58.3494 66.7496 58.3203 66.7206 58.6407 66.1893C58.9222 65.7353 59.3106 65.6001 59.7475 65.7933Z" fill="#262626"/>
<path d="M65.0296 65.3202C64.7286 65.4941 64.3694 65.9771 64.3694 66.2089C64.3694 66.2379 64.5247 66.2669 64.7092 66.2669C64.9713 66.2669 65.117 66.1992 65.282 66.006C65.7383 65.4844 66.6995 65.7452 66.6995 66.3828C66.6995 66.6532 66.6995 66.6532 66.0684 66.6532C64.9422 66.6532 64.3694 67.0686 64.3694 67.8994C64.3694 68.4113 64.5441 68.7108 64.9519 68.9233C65.3208 69.1165 66.049 69.1068 66.4373 68.9136C66.6412 68.7977 66.748 68.7881 66.7771 68.8653C66.7966 68.9233 66.9713 68.9716 67.1655 68.9716H67.5247L67.4956 67.5516C67.4568 65.9384 67.3597 65.6003 66.8742 65.3009C66.4276 65.0304 65.515 65.0401 65.0296 65.3202ZM66.6801 67.6385C66.6315 68.3437 65.8063 68.7108 65.282 68.2664C65.0393 68.0539 65.0199 67.996 65.0975 67.7545C65.214 67.426 65.6412 67.2425 66.2917 67.2425L66.7092 67.2328L66.6801 67.6385Z" fill="#262626"/>
<path d="M69.0291 67.0396V68.9715H69.4174H69.8057V67.3294V65.6872H70.6795H71.5533V65.3974V65.1076H70.2912H69.0291V67.0396Z" fill="#262626"/>
<path d="M73.2527 65.291C72.6313 65.6677 72.34 66.2473 72.3303 67.0974C72.3303 67.9474 72.6701 68.5946 73.3206 68.9327C73.9323 69.2515 75.2624 68.9907 75.5245 68.498C75.6701 68.2372 75.3109 67.9088 75.0682 68.0827C74.6119 68.4111 74.2429 68.5077 73.8643 68.3918C73.476 68.2855 73.107 67.8412 73.107 67.4934C73.107 67.3485 73.2332 67.3292 74.3692 67.3292H75.6313V66.8172C75.6216 66.17 75.3497 65.5518 74.9323 65.3006C74.5051 65.0495 73.6604 65.0398 73.2527 65.291ZM74.408 65.7933C74.6313 65.8995 74.9517 66.3922 74.9517 66.6433C74.9517 66.711 74.6313 66.7496 74.0294 66.7496C73.0099 66.7496 72.9808 66.7206 73.3012 66.1893C73.5827 65.7353 73.9711 65.6001 74.408 65.7933Z" fill="#262626"/>
<path d="M76.8929 67.0396V68.9715H77.2813H77.6696V68.1987V67.4259H78.4949H79.3201V68.1987V68.9715H79.7085H80.0968V67.0396V65.1076H79.7085H79.3201V65.977V66.8464H78.4949H77.6696V65.977V65.1076H77.2813H76.8929V67.0396Z" fill="#262626"/>
<path d="M82.2525 65.2719C81.6214 65.581 81.3107 66.3248 81.3787 67.3391C81.4661 68.4597 82.0486 69.0682 83.0486 69.0682C83.835 69.0682 84.4661 68.6625 84.6117 68.0733C84.6797 67.8318 84.6603 67.8124 84.3593 67.8124C84.1263 67.8124 83.9806 67.8897 83.7865 68.1216C83.5632 68.3824 83.4564 68.4403 83.1069 68.4403C82.767 68.4403 82.6505 68.3824 82.4078 68.1119C82.1263 67.8028 82.1166 67.7545 82.1554 67.03C82.1845 66.4021 82.2234 66.2379 82.4175 66.035C82.5437 65.8998 82.767 65.7645 82.9224 65.7356C83.2913 65.6583 83.7865 65.9191 83.9127 66.2765C84.0001 66.5084 84.0777 66.5567 84.3399 66.5567C84.6117 66.5567 84.6603 66.518 84.6603 66.3345C84.6603 66.0254 84.3204 65.5231 83.9612 65.3009C83.5632 65.0594 82.7088 65.0497 82.2525 65.2719Z" fill="#262626"/>
<path d="M85.5344 65.3974V65.6872H86.1655H86.7966V67.3294V68.9715H87.1849H87.5733V67.3294V65.6872H88.2043H88.8354V65.3974V65.1076H87.1849H85.5344V65.3974Z" fill="#262626"/>
<path d="M89.9032 67.0396V68.9715H91.1265C92.3692 68.9715 92.5828 68.9232 92.9906 68.5562C93.3013 68.2664 93.2916 67.5998 92.9615 67.2811C92.8353 67.1458 92.6896 67.0396 92.6314 67.0396C92.5828 67.0396 92.6702 66.914 92.8255 66.7594C93.3207 66.2571 93.1459 65.523 92.4663 65.2428C92.2527 65.1559 91.7576 65.1076 91.0197 65.1076H89.9032V67.0396ZM92.1848 65.8804C92.2624 65.948 92.3304 66.1025 92.3304 66.2185C92.3304 66.5566 92.0974 66.6725 91.3595 66.7304L90.6799 66.7787V66.2185V65.6582L91.3595 65.7065C91.7285 65.7355 92.1071 65.8128 92.1848 65.8804ZM92.1168 67.4356C92.6411 67.6191 92.6411 68.1118 92.1168 68.2857C91.9518 68.3436 91.5634 68.3919 91.2527 68.3919H90.6799V67.8606V67.3294H91.2527C91.5634 67.3294 91.9518 67.3776 92.1168 67.4356Z" fill="#262626"/>
<path d="M95.3883 65.2429C94.7572 65.5231 94.3689 66.2186 94.3689 67.0879C94.3689 67.9284 94.7281 68.6045 95.3592 68.933C95.6893 69.1069 96.5145 69.1069 96.9223 68.933C98.2621 68.3824 98.2621 65.7935 96.932 65.2429C96.5242 65.069 95.7669 65.0787 95.3883 65.2429ZM96.5534 65.8418C97.4466 66.2572 97.3883 68.0346 96.4757 68.3824C95.7281 68.6625 95.1456 68.1022 95.1456 67.1073C95.1456 66.4601 95.3301 66.0447 95.7087 65.8418C96.0485 65.6583 96.165 65.6583 96.5534 65.8418Z" fill="#262626"/>
</svg>
