<svg width="36" height="36" viewBox="0 0 36 36" fill="none" xmlns="http://www.w3.org/2000/svg">
<path d="M25.8862 12.3469L31.4606 17.9212L25.8862 23.4956" stroke="#231F20"/>
<path d="M31.4607 17.9213H11.0194" stroke="#231F20"/>
<path d="M22.5 21.4763V29.25C22.5 29.4573 22.459 29.6626 22.3795 29.854C22.3 30.0455 22.1835 30.2194 22.0367 30.3657C21.8898 30.512 21.7155 30.6279 21.5238 30.7067C21.3321 30.7856 21.1266 30.8257 20.9193 30.825H6.74997C6.54125 30.828 6.33402 30.7895 6.14033 30.7116C5.94664 30.6338 5.77034 30.5183 5.6217 30.3717C5.47306 30.2252 5.35503 30.0505 5.27447 29.858C5.19392 29.6654 5.15244 29.4587 5.15247 29.25V6.62063C5.15467 6.41332 5.19778 6.20848 5.27932 6.01786C5.36087 5.82725 5.47925 5.65461 5.62767 5.50985C5.77609 5.36508 5.95163 5.25105 6.14422 5.17429C6.33681 5.09752 6.54266 5.05954 6.74997 5.06251H20.9193C21.3351 5.061 21.7346 5.22396 22.0307 5.51585C22.3268 5.80774 22.4955 6.20487 22.5 6.62063V14.0625" stroke="#231F20"/>
</svg>
