<svg width="35" height="35" viewBox="0 0 35 35" fill="none" xmlns="http://www.w3.org/2000/svg">
<path d="M19.5016 19.5069C17.7337 18.7479 16.2505 17.4504 15.2633 15.7991C15.2184 15.7165 15.2006 15.622 15.2124 15.5287C15.2242 15.4355 15.2649 15.3484 15.3289 15.2796L16.1766 14.3553C16.2354 14.2928 16.2746 14.2144 16.2891 14.1298C16.3037 14.0452 16.2931 13.9582 16.2586 13.8796L14.9242 11.3366C14.9242 11.3366 14.3336 10.4342 13.125 11.2108C13.125 11.2108 9.94765 13.6936 11.9766 17.1061C14.0055 20.5186 15.9141 21.6725 17.6312 22.5092C19.1242 23.2366 22.3562 24.2046 24.3086 20.6553C24.3086 20.6553 24.9922 19.5616 24.3086 19.2827C23.9969 19.1569 22.2961 18.3147 21.5742 17.9647C21.4829 17.9197 21.3791 17.9072 21.2797 17.929C21.1803 17.9509 21.0913 18.0059 21.0273 18.085L20.0102 19.3702C19.9512 19.4444 19.8699 19.4977 19.7784 19.5223C19.6868 19.5469 19.5898 19.5415 19.5016 19.5069V19.5069Z" stroke="#231F20"/>
<path d="M4.84531 29.2522L7.03281 23.1272C5.562 20.4654 5.10538 17.3609 5.74747 14.3883C6.38956 11.4157 8.08689 8.77639 10.5252 6.95898C12.9636 5.14156 15.9778 4.26911 19.01 4.50314C22.0421 4.73716 24.8867 6.0618 27.0173 8.23185C29.1479 10.4019 30.4202 13.2704 30.5985 16.3063C30.7769 19.3422 29.8493 22.3399 27.9874 24.7445C26.1256 27.1491 23.4556 28.7977 20.4717 29.3852C17.4879 29.9726 14.3922 29.4591 11.7578 27.9397L4.84531 29.2522Z" stroke="#231F20" stroke-linecap="round"/>
</svg>
